<?xml version="1.0" encoding="UTF-8" standalone="no"?>
<!-- Created with Inkscape (http://www.inkscape.org/) -->

<svg
   xmlns:dc="http://purl.org/dc/elements/1.1/"
   xmlns:cc="http://creativecommons.org/ns#"
   xmlns:rdf="http://www.w3.org/1999/02/22-rdf-syntax-ns#"
   xmlns:svg="http://www.w3.org/2000/svg"
   xmlns="http://www.w3.org/2000/svg"
   xmlns:sodipodi="http://sodipodi.sourceforge.net/DTD/sodipodi-0.dtd"
   xmlns:inkscape="http://www.inkscape.org/namespaces/inkscape"
   width="147.76443mm"
   height="54.810532mm"
   viewBox="0 0 523.57477 194.21054"
   id="svg3375"
   version="1.1"
   inkscape:version="0.91 r13725"
   sodipodi:docname="header_hashtag.svg">
  <defs
     id="defs3377" />
  <sodipodi:namedview
     id="base"
     pagecolor="#ffffff"
     bordercolor="#666666"
     borderopacity="1.0"
     inkscape:pageopacity="0.0"
     inkscape:pageshadow="2"
     inkscape:zoom="1.4"
     inkscape:cx="250.26744"
     inkscape:cy="83.86277"
     inkscape:document-units="px"
     inkscape:current-layer="layer1"
     showgrid="false"
     fit-margin-top="0"
     fit-margin-left="0"
     fit-margin-right="0"
     fit-margin-bottom="0"
     inkscape:window-width="1600"
     inkscape:window-height="837"
     inkscape:window-x="1272"
     inkscape:window-y="-8"
     inkscape:window-maximized="1" />
  <metadata
     id="metadata3380">
    <rdf:RDF>
      <cc:Work
         rdf:about="">
        <dc:format>image/svg+xml</dc:format>
        <dc:type
           rdf:resource="http://purl.org/dc/dcmitype/StillImage" />
        <dc:title></dc:title>
      </cc:Work>
    </rdf:RDF>
  </metadata>
  <g
     inkscape:label="Layer 1"
     inkscape:groupmode="layer"
     id="layer1"
     transform="translate(-128.46664,-120.97122)">
    <circle
       class="st0"
       cx="554.93616"
       cy="218.07649"
       r="97.10527"
       id="circle27"
       style="fill:#f05a26" />
    <circle
       class="st1"
       cx="555.49744"
       cy="215.68486"
       r="85.439949"
       id="circle29"
       style="fill:#ffffff" />
    <circle
       class="st0"
       cx="555.49744"
       cy="215.68486"
       r="72.212738"
       id="circle31"
       style="fill:#f05a26" />
    <polygon
       transform="matrix(0.2440444,0,0,0.2440444,395.74612,105.66964)"
       class="st2"
       points="441.8,592.1 650.3,226.2 862.9,589.7 "
       id="polygon33"
       style="fill:#ffffff;stroke:#f05a26;stroke-miterlimit:10" />
    <path
       inkscape:connector-curvature="0"
       class="st3"
       d="m 554.88742,242.45652 c -2.8797,0 -5.2957,-2.41604 -5.2957,-5.29576 0,-2.97734 2.416,-5.39339 5.2957,-5.39339 2.9773,0 5.3934,2.41605 5.3934,5.39339 0,2.90413 -2.3916,5.29576 -5.3934,5.29576 z m 4.1488,-69.18659 -1.2447,49.4678 -5.7838,0 -1.147,-49.4678 8.1755,0 z"
       id="path37"
       style="fill:#333333" />
    <g
       transform="matrix(1.1452508,0,0,0.92862447,8.5763356,-18.722124)"
       style="font-style:normal;font-weight:normal;font-size:29.63841438px;line-height:50%;font-family:sans-serif;letter-spacing:0px;word-spacing:0px;fill:#000000;fill-opacity:1;fill-rule:nonzero;stroke:none;stroke-width:1px;stroke-linecap:butt;stroke-linejoin:miter;stroke-opacity:1"
       id="text4143">
      <g
         id="g4194">
        <path
           id="path3375"
           style="font-style:normal;font-variant:normal;font-weight:normal;font-stretch:normal;font-size:265px;font-family:'Scriptorama Tradeshow JF';-inkscape-font-specification:'Scriptorama Tradeshow JF';fill:#f15a24"
           d="m 282.04022,208.72225 q 0.9435,0.20966 0.9435,3.45939 0,3.45939 -0.9435,8.17673 -0.8386,4.61252 -1.4676,4.61252 -0.7338,0 -9.9588,-1.0483 -9.1202,-1.15313 -17.6115,-1.15313 -3.669,0 -7.3381,0.10483 l -2.2014,0.20966 q -5.556,8.38639 -12.7892,20.75632 14.9906,-0.94347 22.5384,-0.94347 4.1932,0 4.8222,0.41932 0.7338,0.41932 0.7338,2.51592 0,3.56422 -1.258,4.927 -1.2579,1.25796 -15.9341,4.1932 -14.1521,2.72558 -18.8694,3.04007 -5.8705,10.58782 -9.3299,17.82108 5.556,0.94347 20.5467,-1.25796 5.7656,-0.83864 10.1685,-0.83864 6.185,0 9.854,1.67728 1.9918,0.83864 3.3546,3.77388 1.4676,2.93524 1.4676,4.927 -0.1048,2.20143 -1.3628,1.67728 -4.1932,-1.99177 -10.1685,-1.99177 -5.9753,0 -12.6844,1.99177 -14.3617,4.29803 -23.3771,4.29803 -1.4676,0 -2.0966,-0.20966 -2.7256,-0.83864 -5.7656,-6.39463 -2.8304,-5.24149 -2.7256,-7.33809 0.2097,-3.66905 7.8622,-20.02251 7.2333,-15.30517 15.8293,-31.13448 -11.1119,1.46762 -12.894,1.25796 -1.7821,-0.20966 -3.6691,-6.91878 -1.0483,-3.77387 -2.0966,-7.65258 -0.1048,-0.31449 -0.1048,-0.73381 0,-1.99177 2.3063,-2.41109 10.7974,-2.0966 27.7799,-2.72558 3.04,-4.40285 4.5077,-4.40285 2.9352,0 7.2332,4.29802 23.2723,0.10483 34.6987,3.04007 z"
           inkscape:connector-curvature="0"
           transform="matrix(0.87317119,0,0,1.0768616,6.2326522,1.7006523)" />
        <path
           id="path3377"
           style="font-style:normal;font-variant:normal;font-weight:normal;font-stretch:normal;font-size:265px;font-family:'Scriptorama Tradeshow JF';-inkscape-font-specification:'Scriptorama Tradeshow JF';fill:#f15a24"
           d="m 370.87212,214.59273 q 0,1.46762 -9.5395,19.2887 -10.9023,20.44183 -14.2569,29.14271 -2.2014,5.76565 -2.2014,9.74918 0,5.13667 2.7256,5.87048 0.9434,0.20966 1.7821,0.20966 5.2415,0 12.894,-9.53952 0.3145,-0.41932 1.5725,-0.10483 1.258,0.41932 1.5724,0.94347 0.629,0.94347 0.629,2.09659 0,1.88694 -1.6773,3.98354 -10.2733,12.57959 -20.6514,12.57959 -2.516,0 -4.6126,-0.94347 -3.1449,-1.25796 -6.4994,-6.28979 -3.7739,-5.66082 -3.7739,-10.90231 0,-1.0483 0.1048,-2.0966 1.0483,-5.76565 3.8787,-14.04721 3.0401,-9.22503 6.0802,-14.78102 -23.4819,28.09442 -26.7316,30.71517 -1.0483,0.83864 -2.3063,0.83864 -1.7821,0 -3.3546,-1.46762 -1.4676,-1.46762 -1.6772,-3.87871 -0.4194,-3.77388 -0.2097,-16.14381 0.2097,-15.72448 0.2097,-17.08727 -9.3299,13.83755 -18.3453,31.97312 -9.9588,19.60319 -12.0554,29.66686 -0.4193,1.99177 -0.1048,3.66905 0.2096,1.15313 0,1.36279 -0.3145,0.20966 -0.7339,0.20966 -1.7821,0 -3.5642,-2.0966 -4.1932,-4.927 -3.9835,-6.91877 2.0966,-14.25687 19.3935,-51.99563 17.1921,-37.21462 21.8046,-38.68224 0.629,-0.20966 1.4677,-0.20966 4.8221,0 11.6361,6.81394 0.2096,0.31449 0.2096,2.0966 0,3.56422 -1.7821,20.02251 -1.7821,16.35347 -1.7821,20.86116 0,2.8304 0.5242,3.04006 1.0483,0.31449 16.4583,-18.55489 16.3534,-20.23217 17.4017,-21.17564 1.1532,-0.94347 2.2015,-1.99177 1.5724,-1.36279 2.5159,-1.46762 3.9835,-0.41932 9.1202,1.15313 5.556,1.67728 5.6608,4.08837 z"
           inkscape:connector-curvature="0"
           transform="matrix(0.87317119,0,0,1.0768616,6.2326522,1.7006523)" />
        <path
           id="path3379"
           style="font-style:normal;font-variant:normal;font-weight:normal;font-stretch:normal;font-size:265px;font-family:'Scriptorama Tradeshow JF';-inkscape-font-specification:'Scriptorama Tradeshow JF';fill:#f15a24"
           d="m 433.49652,214.06858 q 0,3.66904 -5.3463,13.20857 -5.3464,9.53952 -7.6526,9.74918 -2.2014,0.31449 -6.4995,-2.83041 -2.3062,-1.67728 -4.6125,-3.45939 -2.0966,-1.0483 -0.2096,-4.19319 2.3062,-3.66905 4.6125,-7.44293 3.4594,-5.45115 3.4594,-6.70911 0,-0.52415 -0.7338,-0.52415 -3.5643,0 -10.483,6.18496 -10.2734,9.22504 -9.4347,15.30517 0.2096,2.0966 7.3381,6.70911 6.8139,4.29803 13.7327,8.59606 7.8622,5.34632 9.4347,9.32986 1.1531,2.51592 1.1531,5.13666 0,11.53129 -18.7646,19.18388 -15.5148,6.28979 -28.4089,5.76564 -7.5477,-0.31449 -13.2085,-3.56422 -5.556,-3.35455 -7.5478,-8.80571 -0.4193,-1.0483 -0.4193,-2.51592 0,-2.93523 1.5725,-6.81394 1.2579,-3.24973 2.3062,-4.29803 0.629,-0.62898 1.258,-0.62898 1.7821,0 2.0966,2.72558 0.5241,3.04007 5.7656,6.60429 5.7657,3.98353 13.4182,5.34632 3.4594,0.62898 7.1285,0.62898 5.556,0 9.7492,-1.46762 6.0801,-2.20143 6.0801,-6.70911 0,-0.94347 -0.2097,-1.99177 -0.8386,-2.93524 -10.6926,-10.48299 -11.741,-9.01537 -13.1038,-10.37816 -5.5559,-6.08014 -5.5559,-13.3134 0,-7.0236 5.5559,-14.15204 6.7092,-8.59605 16.668,-13.52305 7.6526,-3.77388 13.1037,-3.87871 5.2415,-0.20966 11.8458,4.1932 6.6043,4.40285 6.6043,9.01537 z"
           inkscape:connector-curvature="0"
           transform="matrix(0.87317119,0,0,1.0768616,6.2326522,1.7006523)" />
        <path
           inkscape:connector-curvature="0"
           id="path4179"
           style="font-style:normal;font-variant:normal;font-weight:normal;font-stretch:normal;font-size:133.37666321px;line-height:50%;font-family:'Arial Rounded MT Bold';-inkscape-font-specification:'Arial Rounded MT Bold, Normal';text-align:start;writing-mode:lr-tb;text-anchor:start;fill:#000000;fill-opacity:1;fill-rule:nonzero"
           d="m 113.75719,303.79902 2.40964,-12.17844 q -8.9873,-0.19537 -8.9873,-7.16378 0,-3.25627 2.21426,-5.27515 2.27939,-2.08401 6.64279,-2.08401 l 3.06089,0 3.71214,-18.95147 -6.77303,0 q -4.23315,0 -6.57766,-2.08401 -2.27939,-2.14914 -2.27939,-5.21003 0,-3.25627 2.21426,-5.21002 2.27939,-2.01889 6.64279,-2.01889 l 9.70367,0 3.06089,-14.9137 q 0.71638,-3.77727 1.56301,-5.9264 0.91175,-2.14914 2.40963,-3.25627 1.56301,-1.10713 4.03777,-1.10713 3.45165,0 5.27516,1.82351 1.82351,1.82351 1.82351,4.68902 0,0.65126 -1.10714,6.57766 l -2.40963,12.11331 14.26244,0 3.12602,-14.9137 q 0.65125,-3.38652 1.23738,-5.47053 0.58613,-2.08401 2.08401,-3.51676 1.56301,-1.43276 4.49365,-1.43276 3.38651,0 5.21002,1.75838 1.88864,1.75839 1.88864,4.75415 0,1.36763 -0.19538,2.67014 -0.13025,1.30251 -0.39075,2.53989 -0.2605,1.17225 -0.32563,1.49788 l -2.40963,12.24356 q 9.31292,0.19538 9.31292,7.22891 0,3.25627 -2.21426,5.21003 -2.21426,1.95376 -6.57766,1.95376 l -3.32139,0 -3.90752,18.95147 7.22891,0 q 4.3634,0 6.57766,2.08401 2.21426,2.08401 2.21426,5.27515 0,3.19114 -2.21426,5.21002 -2.14914,1.95376 -6.57766,1.95376 l -10.0293,0 -3.06089,14.97883 q -0.71638,3.58189 -1.30251,5.53565 -0.521,1.95376 -2.08401,3.38652 -1.56301,1.49788 -4.49364,1.49788 -3.25627,0 -5.14491,-1.82351 -1.88863,-1.82351 -1.88863,-4.75415 0,-2.67014 0.91175,-6.64278 l 2.40964,-12.17844 -14.39269,0 -3.0609,14.97883 q -1.17225,5.53565 -2.47476,8.01041 -1.23738,2.40964 -5.4054,2.40964 -3.32139,0 -5.21003,-1.82351 -1.88863,-1.82351 -1.88863,-4.75415 0,-1.49788 0.32563,-3.32139 0.39075,-1.88863 0.65125,-3.32139 z m 38.09831,-45.65285 -14.39269,0 -3.8424,18.95147 14.52295,0 3.71214,-18.95147 z" />
      </g>
    </g>
  </g>
</svg>
