<?xml version="1.0" encoding="UTF-8" standalone="no"?>
<!-- Created with Inkscape (http://www.inkscape.org/) -->

<svg
   xmlns:dc="http://purl.org/dc/elements/1.1/"
   xmlns:cc="http://creativecommons.org/ns#"
   xmlns:rdf="http://www.w3.org/1999/02/22-rdf-syntax-ns#"
   xmlns:svg="http://www.w3.org/2000/svg"
   xmlns="http://www.w3.org/2000/svg"
   xmlns:sodipodi="http://sodipodi.sourceforge.net/DTD/sodipodi-0.dtd"
   xmlns:inkscape="http://www.inkscape.org/namespaces/inkscape"
   width="164.84116mm"
   height="54.810532mm"
   viewBox="0 0 584.08284 194.21054"
   id="svg3375"
   version="1.1"
   inkscape:version="0.91 r13725"
   sodipodi:docname="header.svg">
  <defs
     id="defs3377" />
  <sodipodi:namedview
     id="base"
     pagecolor="#ffffff"
     bordercolor="#666666"
     borderopacity="1.0"
     inkscape:pageopacity="0.0"
     inkscape:pageshadow="2"
     inkscape:zoom="0.35"
     inkscape:cx="-190.10145"
     inkscape:cy="-217.18044"
     inkscape:document-units="px"
     inkscape:current-layer="layer1"
     showgrid="false"
     fit-margin-top="0"
     fit-margin-left="0"
     fit-margin-right="0"
     fit-margin-bottom="0"
     inkscape:window-width="1600"
     inkscape:window-height="837"
     inkscape:window-x="1042"
     inkscape:window-y="372"
     inkscape:window-maximized="1" />
  <metadata
     id="metadata3380">
    <rdf:RDF>
      <cc:Work
         rdf:about="">
        <dc:format>image/svg+xml</dc:format>
        <dc:type
           rdf:resource="http://purl.org/dc/dcmitype/StillImage" />
        <dc:title></dc:title>
      </cc:Work>
    </rdf:RDF>
  </metadata>
  <g
     inkscape:label="Layer 1"
     inkscape:groupmode="layer"
     id="layer1"
     transform="translate(-67.958594,-120.97122)">
    <path
       inkscape:connector-curvature="0"
       d="m 88.992854,227.23657 -1.07511,5.74949 q 6.12345,-6.8246 14.817806,-6.63763 4.67439,0.0935 7.75948,2.15022 3.08509,2.05673 4.16019,5.56252 6.6844,-7.89971 15.706,-7.71274 6.9648,0.14024 10.4706,4.76788 3.5525,4.62764 2.9916,13.36875 l -0.093,1.16859 -5.3755,32.20654 -13.2286,0 5.3756,-32.30002 q 0.187,-1.72953 0.1402,-3.22533 -0.3272,-4.90811 -5.6092,-5.04834 -5.4223,0 -9.3021,5.79624 l -0.1402,1.07511 -5.88974,33.70234 -13.181776,0 5.375546,-32.20654 q 0.18698,-1.72952 0.14023,-3.22532 -0.32721,-4.95485 -5.562516,-5.09509 -5.00159,-0.14023 -9.02157,4.72114 l -6.31042,35.80581 -13.18178,0 8.74111,-50.57688 12.29364,-0.0467 z"
       style="font-style:italic;font-variant:normal;font-weight:bold;font-stretch:normal;font-size:242px;font-family:Roboto;-inkscape-font-specification:'Roboto Bold Italic';fill:#333333"
       id="path3370" />
    <path
       inkscape:connector-curvature="0"
       d="m 170.37392,258.60171 14.4439,-31.3184 14.6776,0 -29.5889,58.19613 q -3.1786,6.68437 -7.479,9.81621 -4.2537,3.13184 -9.863,3.13184 -2.197,0 -6.3572,-0.98162 l 0.9817,-10.28365 1.823,0.0935 q 6.4506,0.18697 9.4422,-4.72114 l 2.8982,-5.37554 -8.2737,-49.87572 13.6492,0 3.646,31.3184 z"
       style="font-style:italic;font-variant:normal;font-weight:bold;font-stretch:normal;font-size:242px;font-family:Roboto;-inkscape-font-specification:'Roboto Bold Italic';fill:#333333"
       id="path3372" />
    <path
       inkscape:connector-curvature="0"
       d="m 282.04022,208.72225 q 0.9435,0.20966 0.9435,3.45939 0,3.45939 -0.9435,8.17673 -0.8386,4.61252 -1.4676,4.61252 -0.7338,0 -9.9588,-1.0483 -9.1202,-1.15313 -17.6115,-1.15313 -3.669,0 -7.3381,0.10483 l -2.2014,0.20966 q -5.556,8.38639 -12.7892,20.75632 14.9906,-0.94347 22.5384,-0.94347 4.1932,0 4.8222,0.41932 0.7338,0.41932 0.7338,2.51592 0,3.56422 -1.258,4.927 -1.2579,1.25796 -15.9341,4.1932 -14.1521,2.72558 -18.8694,3.04007 -5.8705,10.58782 -9.3299,17.82108 5.556,0.94347 20.5467,-1.25796 5.7656,-0.83864 10.1685,-0.83864 6.185,0 9.854,1.67728 1.9918,0.83864 3.3546,3.77388 1.4676,2.93524 1.4676,4.927 -0.1048,2.20143 -1.3628,1.67728 -4.1932,-1.99177 -10.1685,-1.99177 -5.9753,0 -12.6844,1.99177 -14.3617,4.29803 -23.3771,4.29803 -1.4676,0 -2.0966,-0.20966 -2.7256,-0.83864 -5.7656,-6.39463 -2.8304,-5.24149 -2.7256,-7.33809 0.2097,-3.66905 7.8622,-20.02251 7.2333,-15.30517 15.8293,-31.13448 -11.1119,1.46762 -12.894,1.25796 -1.7821,-0.20966 -3.6691,-6.91878 -1.0483,-3.77387 -2.0966,-7.65258 -0.1048,-0.31449 -0.1048,-0.73381 0,-1.99177 2.3063,-2.41109 10.7974,-2.0966 27.7799,-2.72558 3.04,-4.40285 4.5077,-4.40285 2.9352,0 7.2332,4.29802 23.2723,0.10483 34.6987,3.04007 z"
       style="font-style:normal;font-variant:normal;font-weight:normal;font-stretch:normal;font-size:265px;font-family:'Scriptorama Tradeshow JF';-inkscape-font-specification:'Scriptorama Tradeshow JF';fill:#f15a24"
       id="path3375" />
    <path
       inkscape:connector-curvature="0"
       d="m 370.87212,214.59273 q 0,1.46762 -9.5395,19.2887 -10.9023,20.44183 -14.2569,29.14271 -2.2014,5.76565 -2.2014,9.74918 0,5.13667 2.7256,5.87048 0.9434,0.20966 1.7821,0.20966 5.2415,0 12.894,-9.53952 0.3145,-0.41932 1.5725,-0.10483 1.258,0.41932 1.5724,0.94347 0.629,0.94347 0.629,2.09659 0,1.88694 -1.6773,3.98354 -10.2733,12.57959 -20.6514,12.57959 -2.516,0 -4.6126,-0.94347 -3.1449,-1.25796 -6.4994,-6.28979 -3.7739,-5.66082 -3.7739,-10.90231 0,-1.0483 0.1048,-2.0966 1.0483,-5.76565 3.8787,-14.04721 3.0401,-9.22503 6.0802,-14.78102 -23.4819,28.09442 -26.7316,30.71517 -1.0483,0.83864 -2.3063,0.83864 -1.7821,0 -3.3546,-1.46762 -1.4676,-1.46762 -1.6772,-3.87871 -0.4194,-3.77388 -0.2097,-16.14381 0.2097,-15.72448 0.2097,-17.08727 -9.3299,13.83755 -18.3453,31.97312 -9.9588,19.60319 -12.0554,29.66686 -0.4193,1.99177 -0.1048,3.66905 0.2096,1.15313 0,1.36279 -0.3145,0.20966 -0.7339,0.20966 -1.7821,0 -3.5642,-2.0966 -4.1932,-4.927 -3.9835,-6.91877 2.0966,-14.25687 19.3935,-51.99563 17.1921,-37.21462 21.8046,-38.68224 0.629,-0.20966 1.4677,-0.20966 4.8221,0 11.6361,6.81394 0.2096,0.31449 0.2096,2.0966 0,3.56422 -1.7821,20.02251 -1.7821,16.35347 -1.7821,20.86116 0,2.8304 0.5242,3.04006 1.0483,0.31449 16.4583,-18.55489 16.3534,-20.23217 17.4017,-21.17564 1.1532,-0.94347 2.2015,-1.99177 1.5724,-1.36279 2.5159,-1.46762 3.9835,-0.41932 9.1202,1.15313 5.556,1.67728 5.6608,4.08837 z"
       style="font-style:normal;font-variant:normal;font-weight:normal;font-stretch:normal;font-size:265px;font-family:'Scriptorama Tradeshow JF';-inkscape-font-specification:'Scriptorama Tradeshow JF';fill:#f15a24"
       id="path3377" />
    <path
       inkscape:connector-curvature="0"
       d="m 433.49652,214.06858 q 0,3.66904 -5.3463,13.20857 -5.3464,9.53952 -7.6526,9.74918 -2.2014,0.31449 -6.4995,-2.83041 -2.3062,-1.67728 -4.6125,-3.45939 -2.0966,-1.0483 -0.2096,-4.19319 2.3062,-3.66905 4.6125,-7.44293 3.4594,-5.45115 3.4594,-6.70911 0,-0.52415 -0.7338,-0.52415 -3.5643,0 -10.483,6.18496 -10.2734,9.22504 -9.4347,15.30517 0.2096,2.0966 7.3381,6.70911 6.8139,4.29803 13.7327,8.59606 7.8622,5.34632 9.4347,9.32986 1.1531,2.51592 1.1531,5.13666 0,11.53129 -18.7646,19.18388 -15.5148,6.28979 -28.4089,5.76564 -7.5477,-0.31449 -13.2085,-3.56422 -5.556,-3.35455 -7.5478,-8.80571 -0.4193,-1.0483 -0.4193,-2.51592 0,-2.93523 1.5725,-6.81394 1.2579,-3.24973 2.3062,-4.29803 0.629,-0.62898 1.258,-0.62898 1.7821,0 2.0966,2.72558 0.5241,3.04007 5.7656,6.60429 5.7657,3.98353 13.4182,5.34632 3.4594,0.62898 7.1285,0.62898 5.556,0 9.7492,-1.46762 6.0801,-2.20143 6.0801,-6.70911 0,-0.94347 -0.2097,-1.99177 -0.8386,-2.93524 -10.6926,-10.48299 -11.741,-9.01537 -13.1038,-10.37816 -5.5559,-6.08014 -5.5559,-13.3134 0,-7.0236 5.5559,-14.15204 6.7092,-8.59605 16.668,-13.52305 7.6526,-3.77388 13.1037,-3.87871 5.2415,-0.20966 11.8458,4.1932 6.6043,4.40285 6.6043,9.01537 z"
       style="font-style:normal;font-variant:normal;font-weight:normal;font-stretch:normal;font-size:265px;font-family:'Scriptorama Tradeshow JF';-inkscape-font-specification:'Scriptorama Tradeshow JF';fill:#f15a24"
       id="path3379" />
    <circle
       class="st0"
       cx="554.93616"
       cy="218.07649"
       r="97.10527"
       id="circle27"
       style="fill:#f05a26" />
    <circle
       class="st1"
       cx="555.49744"
       cy="215.68486"
       r="85.439949"
       id="circle29"
       style="fill:#ffffff" />
    <circle
       class="st0"
       cx="555.49744"
       cy="215.68486"
       r="72.212738"
       id="circle31"
       style="fill:#f05a26" />
    <polygon
       transform="matrix(0.2440444,0,0,0.2440444,395.74612,105.66964)"
       class="st2"
       points="441.8,592.1 650.3,226.2 862.9,589.7 "
       id="polygon33"
       style="fill:#ffffff;stroke:#f05a26;stroke-miterlimit:10" />
    <path
       inkscape:connector-curvature="0"
       class="st3"
       d="m 554.88742,242.45652 c -2.8797,0 -5.2957,-2.41604 -5.2957,-5.29576 0,-2.97734 2.416,-5.39339 5.2957,-5.39339 2.9773,0 5.3934,2.41605 5.3934,5.39339 0,2.90413 -2.3916,5.29576 -5.3934,5.29576 z m 4.1488,-69.18659 -1.2447,49.4678 -5.7838,0 -1.147,-49.4678 8.1755,0 z"
       id="path37"
       style="fill:#333333" />
  </g>
</svg>
