<?xml version="1.0" encoding="UTF-8" standalone="no"?>
<!-- Generator: Adobe Illustrator 20.0.0, SVG Export Plug-In . SVG Version: 6.00 Build 0)  -->

<?xml-stylesheet type="text/css" href="../css/iconstyle.css"?><svg
   xmlns:dc="http://purl.org/dc/elements/1.1/"
   xmlns:cc="http://creativecommons.org/ns#"
   xmlns:rdf="http://www.w3.org/1999/02/22-rdf-syntax-ns#"
   xmlns:svg="http://www.w3.org/2000/svg"
   xmlns="http://www.w3.org/2000/svg"
   xmlns:sodipodi="http://sodipodi.sourceforge.net/DTD/sodipodi-0.dtd"
   xmlns:inkscape="http://www.inkscape.org/namespaces/inkscape"
   version="1.1"
   id="Layer_1"
   x="0px"
   y="0px"
   viewBox="0 0 1225.8703 363.54069"
   xml:space="preserve"
   inkscape:version="0.91 r13725"
   sodipodi:docname="Icon3.svg"
   width="1225.8702"
   height="363.54068"><metadata
     id="metadata39"><rdf:RDF><cc:Work
         rdf:about=""><dc:format>image/svg+xml</dc:format><dc:type
           rdf:resource="http://purl.org/dc/dcmitype/StillImage" /><dc:title></dc:title></cc:Work></rdf:RDF></metadata><defs
     id="defs37" /><sodipodi:namedview
     pagecolor="#ffffff"
     bordercolor="#666666"
     borderopacity="1"
     objecttolerance="10"
     gridtolerance="10"
     guidetolerance="10"
     inkscape:pageopacity="0"
     inkscape:pageshadow="2"
     inkscape:window-width="1600"
     inkscape:window-height="837"
     id="namedview35"
     showgrid="false"
     inkscape:zoom="0.39790932"
     inkscape:cx="263.09607"
     inkscape:cy="5.4427892"
     inkscape:window-x="1042"
     inkscape:window-y="372"
     inkscape:window-maximized="1"
     inkscape:current-layer="Layer_1"
     fit-margin-top="0"
     fit-margin-left="0"
     fit-margin-right="0"
     fit-margin-bottom="0" /><style
     type="text/css"
     id="style3">
	.st0{fill:#F05A26;}
	.st1{fill:#FFFFFF;}
	.st2{fill:#FFFFFF;stroke:#F05A26;stroke-miterlimit:10;}
	.st3{fill:#333333;}
	.st4{font-family:'Roboto-BlackItalic';}
	.st5{font-size:242px;}
	.st6{fill:#F15A24;}
	.st7{font-family:'ScriptoramaJF-Tradeshow';}
	.st8{font-size:265px;}
	.st9{font-family:'Coquette';}
	.st10{font-size:394.2878px;}
</style><g
     id="g17"
     transform="translate(-54.984473,-319.20468)"><g
       transform="translate(-0.87783134,-7.3745564)"
       id="g19"><g
         transform="translate(185.3483,1082.3953)"
         style="font-size:242px;font-family:Roboto-BlackItalic;fill:#333333"
         id="text21"><path
           d="m 308.72341,-587.48596 -2.45808,13.14544 q 14.00042,-15.60352 33.87889,-15.17604 10.68735,0.21375 17.74101,4.91618 7.05364,4.70244 9.51173,12.71796 15.28292,-18.06162 35.90951,-17.63414 15.92415,0.32064 23.93966,10.9011 8.12239,10.58047 6.83991,30.56582 l -0.21374,2.67184 -12.29045,73.63585 -30.24521,0 12.29044,-73.8496 q 0.4275,-3.95431 0.32062,-7.37426 -0.7481,-11.22172 -12.82481,-11.54235 -12.39732,0 -21.26784,13.25233 l -0.32062,2.45808 -13.46606,77.0558 -30.13833,0 12.29046,-73.63585 q 0.42749,-3.95431 0.32062,-7.37427 -0.7481,-11.32859 -12.71795,-11.6492 -11.43547,-0.32063 -20.62659,10.79421 l -14.42792,81.86511 -30.13835,0 19.98536,-115.63714 28.10774,-0.1069 z"
           style="font-style:italic;font-variant:normal;font-weight:bold;font-stretch:normal;font-family:Roboto;-inkscape-font-specification:'Roboto Bold Italic'"
           id="path3370"
           inkscape:connector-curvature="0" /><path
           d="m 494.79021,-515.77383 33.02391,-71.60526 33.55827,0 -67.65093,133.05753 q -7.26739,15.28293 -17.09977,22.44345 -9.72548,7.16052 -22.5503,7.16052 -5.02306,0 -14.5348,-2.24435 l 2.24434,-23.51217 4.16808,0.21375 q 14.74853,0.42749 21.58844,-10.79424 l 6.62615,-12.29045 -18.91661,-114.03404 31.20708,0 8.33614,71.60526 z"
           style="font-style:italic;font-variant:normal;font-weight:bold;font-stretch:normal;font-family:Roboto;-inkscape-font-specification:'Roboto Bold Italic'"
           id="path3372"
           inkscape:connector-curvature="0" /></g><g
         transform="translate(509.582,1104.2512)"
         style="font-size:265px;font-family:ScriptoramaJF-Tradeshow;fill:#f15a24"
         id="text23"><path
           d="m 425.86629,-651.67233 q 2.15712,0.47937 2.15712,7.90943 0,7.90942 -2.15712,18.69499 -1.91743,10.54589 -3.3555,10.54589 -1.67776,0 -22.76955,-2.39681 -20.8521,-2.63647 -40.26611,-2.63647 -8.38878,0 -16.77756,0.23968 l -5.03327,0.47936 q -12.703,19.17435 -29.24086,47.45651 34.27413,-2.15711 51.53105,-2.15711 9.58717,0 11.02524,0.95871 1.67776,0.95872 1.67776,5.75231 0,8.14909 -2.87617,11.26492 -2.87614,2.87616 -36.43124,9.58718 -32.35671,6.23166 -43.14228,6.9507 -13.42203,24.2076 -21.33146,40.74548 12.70301,2.15712 46.97714,-2.87616 13.18238,-1.91742 23.24891,-1.91742 14.14107,0 22.52985,3.83487 4.55391,1.91743 7.66974,8.62845 3.35551,6.71101 3.35551,11.26493 -0.23968,5.03326 -3.11583,3.83486 -9.58717,-4.5539 -23.2489,-4.5539 -13.66172,0 -29.00119,4.5539 -32.83607,9.82686 -53.44848,9.82686 -3.35553,0 -4.7936,-0.47936 -6.23167,-1.91743 -13.18236,-14.62044 -6.47134,-11.98397 -6.23167,-16.77755 0.47936,-8.38878 17.97596,-45.77876 16.53786,-34.99317 36.19157,-71.18474 -25.406,3.3555 -29.48055,2.87614 -4.07455,-0.47935 -8.38878,-15.81883 -2.3968,-8.62846 -4.79359,-17.49659 -0.23968,-0.71904 -0.23968,-1.67775 0,-4.55391 5.27295,-5.51263 24.68697,-4.79359 63.51502,-6.23165 6.95069,-10.06655 10.30621,-10.06655 6.71101,0 16.53787,9.82685 53.2088,0.2397 79.33385,6.9507 z"
           style="font-style:normal;font-variant:normal;font-weight:normal;font-stretch:normal;font-family:'Scriptorama Tradeshow JF';-inkscape-font-specification:'Scriptorama Tradeshow JF'"
           id="path3375"
           inkscape:connector-curvature="0" /><path
           d="m 628.96831,-638.25028 q 0,3.35551 -21.81083,44.101 -24.92664,46.73746 -32.59638,66.63085 -5.03327,13.18235 -5.03327,22.29017 0,11.74428 6.23167,13.42204 2.15711,0.47936 4.07455,0.47936 11.98396,0 29.48056,-21.81083 0.71903,-0.95871 3.59518,-0.23967 2.87615,0.95871 3.59518,2.15711 1.43809,2.15713 1.43809,4.79359 0,4.31423 -3.83488,9.10782 -23.48856,28.7615 -47.21681,28.7615 -5.75231,0 -10.54589,-2.1571 -7.19038,-2.87615 -14.86012,-14.38076 -8.62846,-12.94268 -8.62846,-24.92664 0,-2.39681 0.23969,-4.7936 2.39679,-13.18236 8.86812,-32.11703 6.9507,-21.09177 13.9014,-33.79477 -53.68815,64.23405 -61.11822,70.22604 -2.39679,1.91743 -5.27295,1.91743 -4.07454,0 -7.66973,-3.35552 -3.35551,-3.3555 -3.83488,-8.86814 -0.95871,-8.62844 -0.47936,-36.91061 0.47936,-35.95188 0.47936,-39.06772 -21.33146,31.63767 -41.94387,73.10219 -22.76954,44.82004 -27.56312,67.82925 -0.95873,4.5539 -0.23968,8.38878 0.47936,2.63647 0,3.11583 -0.71905,0.47936 -1.67777,0.47936 -4.07454,0 -8.14908,-4.7936 -9.58718,-11.26492 -9.10782,-15.81882 4.79358,-32.5964 44.34067,-118.88094 39.30742,-85.08617 49.8533,-88.44168 1.43808,-0.47936 3.35551,-0.47936 11.02525,0 26.60441,15.57917 0.47936,0.71904 0.47936,4.79358 0,8.1491 -4.07455,45.77874 -4.07455,37.38998 -4.07455,47.6962 0,6.47134 1.1984,6.9507 2.39679,0.71904 37.62965,-42.42325 37.38996,-46.25811 39.78676,-48.41522 2.63648,-2.15711 5.03327,-4.55392 3.59519,-3.11582 5.7523,-3.3555 9.10781,-0.95871 20.8521,2.63649 12.70301,3.83486 12.94269,9.34748 z"
           style="font-style:normal;font-variant:normal;font-weight:normal;font-stretch:normal;font-family:'Scriptorama Tradeshow JF';-inkscape-font-specification:'Scriptorama Tradeshow JF'"
           id="path3377"
           inkscape:connector-curvature="0" /><path
           d="m 772.15049,-639.44868 q 0,8.38878 -12.22366,30.19959 -12.22364,21.81082 -17.49658,22.29018 -5.03328,0.71903 -14.86012,-6.47134 -5.27294,-3.83487 -10.5459,-7.90941 -4.79357,-2.39679 -0.47936,-9.58718 5.27295,-8.38878 10.5459,-17.01724 7.90941,-12.46332 7.90941,-15.33947 0,-1.19839 -1.67775,-1.19839 -8.14909,0 -23.96794,14.14107 -23.48857,21.09178 -21.57113,34.9932 0.47935,4.79358 16.77755,15.33946 15.57916,9.82685 31.398,19.65371 17.97594,12.22364 21.57113,21.33146 2.63647,5.75229 2.63647,11.74428 0,26.36472 -42.9026,43.86131 -35.47253,14.38076 -64.95309,13.18236 -17.25692,-0.71903 -30.1996,-8.14908 -12.703,-7.66974 -17.2569,-20.13306 -0.95871,-2.39681 -0.95871,-5.75231 0,-6.71103 3.59518,-15.57915 2.87615,-7.43007 5.27294,-9.82686 1.43807,-1.43807 2.87616,-1.43807 4.07454,0 4.79358,6.23165 1.1984,6.95071 13.18236,15.09981 13.18238,9.1078 30.67895,12.22364 7.90943,1.43808 16.29821,1.43808 12.70299,0 22.29016,-3.35552 13.90141,-5.03326 13.90141,-15.33948 0,-2.15711 -0.47936,-4.5539 -1.91744,-6.71102 -24.44729,-23.96794 -26.84409,-20.61242 -29.95992,-23.72825 -12.703,-13.9014 -12.703,-30.43927 0,-16.05851 12.703,-32.3567 15.33947,-19.65371 38.10902,-30.91864 17.49659,-8.62846 29.95992,-8.86813 11.98396,-0.47937 27.08375,9.58716 15.09981,10.06654 15.09981,20.61243 z"
           style="font-style:normal;font-variant:normal;font-weight:normal;font-stretch:normal;font-family:'Scriptorama Tradeshow JF';-inkscape-font-specification:'Scriptorama Tradeshow JF'"
           id="path3379"
           inkscape:connector-curvature="0" /></g></g><g
       transform="translate(-0.87783134,-7.3745564)"
       id="g25"><circle
         class="st0"
         cx="237.63264"
         cy="508.34958"
         r="181.77034"
         id="circle27"
         style="fill:#f05a26" /><circle
         class="st1"
         cx="238.68335"
         cy="503.87268"
         r="159.93417"
         id="circle29"
         style="fill:#ffffff" /><circle
         class="st0"
         cx="238.68335"
         cy="503.87268"
         r="135.17427"
         id="circle31"
         style="fill:#f05a26" /><polygon
         class="st2"
         points="650.3,226.2 862.9,589.7 441.8,592.1 "
         id="polygon33"
         style="fill:#ffffff;stroke:#f05a26;stroke-miterlimit:10"
         transform="matrix(0.45682421,0,0,0.45682421,-60.353779,297.93634)" /><g
         id="g35"><path
           inkscape:connector-curvature="0"
           class="st3"
           d="m 237.54129,553.98632 c -5.39052,0 -9.91309,-4.52257 -9.91309,-9.9131 0,-5.57325 4.52257,-10.09581 9.91309,-10.09581 5.57326,0 10.09581,4.52256 10.09581,10.09581 0,5.43622 -4.47687,9.9131 -10.09581,9.9131 z m 7.76601,-129.50967 -2.32981,92.59827 -10.82672,0 -2.14709,-92.59827 15.30362,0 z"
           id="path37"
           style="fill:#333333" /></g></g></g></svg>