<?xml version="1.0" encoding="UTF-8" standalone="no"?>
<!-- Generator: Adobe Illustrator 20.0.0, SVG Export Plug-In . SVG Version: 6.00 Build 0)  -->

<svg
   xmlns:dc="http://purl.org/dc/elements/1.1/"
   xmlns:cc="http://creativecommons.org/ns#"
   xmlns:rdf="http://www.w3.org/1999/02/22-rdf-syntax-ns#"
   xmlns:svg="http://www.w3.org/2000/svg"
   xmlns="http://www.w3.org/2000/svg"
   xmlns:sodipodi="http://sodipodi.sourceforge.net/DTD/sodipodi-0.dtd"
   xmlns:inkscape="http://www.inkscape.org/namespaces/inkscape"
   version="1.1"
   id="Layer_1"
   x="0px"
   y="0px"
   viewBox="0 0 1286.2 1186.2"
   style="enable-background:new 0 0 1286.2 1186.2;"
   xml:space="preserve"
   inkscape:version="0.91 r13725"
   sodipodi:docname="Icon2.svg"><metadata
     id="metadata39"><rdf:RDF><cc:Work
         rdf:about=""><dc:format>image/svg+xml</dc:format><dc:type
           rdf:resource="http://purl.org/dc/dcmitype/StillImage" /></cc:Work></rdf:RDF></metadata><defs
     id="defs37" /><sodipodi:namedview
     pagecolor="#ffffff"
     bordercolor="#666666"
     borderopacity="1"
     objecttolerance="10"
     gridtolerance="10"
     guidetolerance="10"
     inkscape:pageopacity="0"
     inkscape:pageshadow="2"
     inkscape:window-width="1600"
     inkscape:window-height="837"
     id="namedview35"
     showgrid="false"
     inkscape:zoom="0.28136438"
     inkscape:cx="-108.92274"
     inkscape:cy="720.04986"
     inkscape:window-x="1042"
     inkscape:window-y="372"
     inkscape:window-maximized="1"
     inkscape:current-layer="Layer_1" /><style
     type="text/css"
     id="style3">
	.st0{fill:#F05A26;}
	.st1{fill:#FFFFFF;}
	.st2{fill:#FFFFFF;stroke:#F05A26;stroke-miterlimit:10;}
	.st3{fill:#333333;}
	.st4{font-family:'Roboto-BlackItalic';}
	.st5{font-size:242px;}
	.st6{fill:#F15A24;}
	.st7{font-family:'ScriptoramaJF-Tradeshow';}
	.st8{font-size:265px;}
	.st9{font-family:'Coquette';}
	.st10{font-size:394.2878px;}
</style><g
     id="g17"><g
       transform="translate(-0.87783134,-7.3745564)"
       id="g19"><g
         transform="translate(185.3483,1082.3953)"
         style="font-size:242px;font-family:Roboto-BlackItalic;fill:#333333"
         id="text21"><path
           d="m 53.52832,-127.97168 -2.717773,14.53418 q 15.479492,-17.25195 37.458008,-16.7793 11.816405,0.23633 19.615235,5.43555 7.79883,5.19922 10.5166,14.06152 16.89746,-19.96972 39.70313,-19.49707 17.60644,0.3545 26.46875,12.05274 8.98046,11.69824 7.5625,33.794919 l -0.23633,2.954102 L 178.30957,0 144.86914,0 158.45801,-81.651367 q 0.47265,-4.37207 0.35449,-8.15332 -0.82715,-12.407223 -14.17969,-12.761723 -13.70703,0 -23.51465,14.652348 l -0.35449,2.717773 L 105.875,0 72.552734,0 86.141602,-81.415039 q 0.472656,-4.37207 0.354492,-8.15332 -0.827149,-12.525391 -14.061524,-12.879881 -12.643554,-0.35449 -22.805664,11.934568 L 33.676758,0 0.35449219,0 22.451172,-127.85352 53.52832,-127.97168 Z"
           style="font-style:italic;font-variant:normal;font-weight:bold;font-stretch:normal;font-family:Roboto;-inkscape-font-specification:'Roboto Bold Italic'"
           id="path3370" /><path
           d="m 259.25195,-48.683594 36.5127,-79.169926 37.10351,0 -74.79785,147.114262 q -8.03515,16.897461 -18.90625,24.814453 -10.75293,7.916992 -24.93261,7.916992 -5.55372,0 -16.07032,-2.481445 l 2.48145,-25.996094 4.6084,0.236329 q 16.30664,0.472656 23.86914,-11.934571 l 7.32617,-13.5888669 -20.91504,-126.0810591 34.50391,0 9.21679,79.169926 z"
           style="font-style:italic;font-variant:normal;font-weight:bold;font-stretch:normal;font-family:Roboto;-inkscape-font-specification:'Roboto Bold Italic'"
           id="path3372" /></g><g
         transform="translate(509.582,1104.2512)"
         style="font-size:265px;font-family:ScriptoramaJF-Tradeshow;fill:#f15a24"
         id="text23"><path
           d="m 217.3,-196.63 q 2.385,0.53 2.385,8.745 0,8.745 -2.385,20.67 -2.12,11.66 -3.71,11.66 -1.855,0 -25.175,-2.65 -23.055,-2.915 -44.52,-2.915 -9.275,0 -18.55,0.265 l -5.565,0.53 q -14.045,21.2 -32.33,52.47 37.895,-2.385 56.975,-2.385 10.6,0 12.19,1.06 1.855,1.06 1.855,6.36 0,9.01 -3.18,12.455 -3.18,3.18 -40.28,10.6 -35.775,6.89 -47.7,7.685 -14.84,26.765 -23.585,45.05 14.045,2.385 51.94,-3.18 14.575,-2.12 25.705,-2.12 15.635,0 24.91,4.24 5.035,2.12 8.48,9.54 3.71,7.42 3.71,12.455 -0.265,5.565 -3.445,4.24 -10.6,-5.035 -25.705,-5.035 -15.105,0 -32.065,5.035 Q 60.95,9.01 38.16,9.01 q -3.71,0 -5.3,-0.53 -6.89,-2.12 -14.575,-16.165 -7.155,-13.25 -6.89,-18.55 0.53,-9.275 19.875,-50.615 18.285,-38.69 40.015,-78.705 -28.09,3.71 -32.595,3.18 -4.505,-0.53 -9.275,-17.49 -2.65,-9.54 -5.3,-19.345 -0.265,-0.795 -0.265,-1.855 0,-5.035 5.83,-6.095 27.295,-5.3 70.225,-6.89 7.685,-11.13 11.395,-11.13 7.42,0 18.285,10.865 58.83,0.265 87.715,7.685 z"
           style="font-style:normal;font-variant:normal;font-weight:normal;font-stretch:normal;font-family:'Scriptorama Tradeshow JF';-inkscape-font-specification:'Scriptorama Tradeshow JF'"
           id="path3375" /><path
           d="m 441.85852,-181.79 q 0,3.71 -24.115,48.76 -27.56,51.675 -36.04,73.67 -5.565,14.575 -5.565,24.645 0,12.985 6.89,14.84 2.385,0.53 4.505,0.53 13.25,0 32.595,-24.115 0.795,-1.06 3.975,-0.265 3.18,1.06 3.975,2.385 1.59,2.385 1.59,5.3 0,4.77 -4.24,10.07 -25.97,31.8 -52.205,31.8 -6.36,0 -11.66,-2.385 -7.95,-3.18 -16.43,-15.9 -9.54,-14.31 -9.54,-27.56 0,-2.65 0.265,-5.3 2.65,-14.575 9.805,-35.51 7.685,-23.32 15.37,-37.365 -59.36,71.02 -67.575,77.645 -2.65,2.12 -5.83,2.12 -4.505,0 -8.48,-3.71 -3.71,-3.71 -4.24,-9.805 -1.06,-9.54 -0.53,-40.81 0.53,-39.75 0.53,-43.195 -23.585,34.98 -46.375,80.825 -25.175,49.555 -30.475,74.995 -1.06,5.035 -0.265,9.275 0.53,2.915 0,3.445 -0.795,0.53 -1.855,0.53 -4.505,0 -9.01,-5.3 -10.6,-12.455 -10.07,-17.49 5.3,-36.04 49.025,-131.44 43.46,-94.075 55.12,-97.785 1.59,-0.53 3.71,-0.53 12.19,0 29.415,17.225 0.53,0.795 0.53,5.3 0,9.01 -4.505,50.615 -4.505,41.34 -4.505,52.735 0,7.155 1.325,7.685 2.65,0.795 41.605,-46.905 41.34,-51.145 43.99,-53.53 2.915,-2.385 5.565,-5.035 3.975,-3.445 6.36,-3.71 10.07,-1.06 23.055,2.915 14.045,4.24 14.31,10.335 z"
           style="font-style:normal;font-variant:normal;font-weight:normal;font-stretch:normal;font-family:'Scriptorama Tradeshow JF';-inkscape-font-specification:'Scriptorama Tradeshow JF'"
           id="path3377" /><path
           d="m 600.16703,-183.115 q 0,9.275 -13.515,33.39 -13.515,24.115 -19.345,24.645 -5.565,0.795 -16.43,-7.155 -5.83,-4.24 -11.66,-8.745 -5.3,-2.65 -0.53,-10.6 5.83,-9.275 11.66,-18.815 8.745,-13.78 8.745,-16.96 0,-1.325 -1.855,-1.325 -9.01,0 -26.5,15.635 -25.97,23.32 -23.85,38.69 0.53,5.3 18.55,16.96 17.225,10.865 34.715,21.73 19.875,13.515 23.85,23.585 2.915,6.36 2.915,12.985 0,29.15 -47.435,48.495 -39.22,15.9 -71.815,14.575 -19.08,-0.795 -33.39,-9.01 -14.045,-8.48 -19.08,-22.26 -1.06,-2.65 -1.06,-6.36 0,-7.42 3.975,-17.225 3.18,-8.215 5.83,-10.865 1.59,-1.59 3.18,-1.59 4.505,0 5.3,6.89 1.325,7.685 14.575,16.695 14.575,10.07 33.92,13.515 8.745,1.59 18.02,1.59 14.045,0 24.645,-3.71 15.37,-5.565 15.37,-16.96 0,-2.385 -0.53,-5.035 -2.12,-7.42 -27.03,-26.5 -29.68,-22.79 -33.125,-26.235 -14.045,-15.37 -14.045,-33.655 0,-17.755 14.045,-35.775 16.96,-21.73 42.135,-34.185 19.345,-9.54 33.125,-9.805 13.25,-0.53 29.945,10.6 16.695,11.13 16.695,22.79 z"
           style="font-style:normal;font-variant:normal;font-weight:normal;font-stretch:normal;font-family:'Scriptorama Tradeshow JF';-inkscape-font-specification:'Scriptorama Tradeshow JF'"
           id="path3379" /></g></g><g
       transform="translate(-0.87783134,-7.3745564)"
       id="g25"><circle
         class="st0"
         cx="652.29999"
         cy="460.60001"
         r="397.89999"
         id="circle27"
         style="fill:#f05a26" /><circle
         class="st1"
         cx="654.59998"
         cy="450.79999"
         r="350.10001"
         id="circle29"
         style="fill:#ffffff" /><circle
         class="st0"
         cx="654.59998"
         cy="450.79999"
         r="295.89999"
         id="circle31"
         style="fill:#f05a26" /><polygon
         class="st2"
         points="441.8,592.1 650.3,226.2 862.9,589.7 "
         id="polygon33"
         style="fill:#ffffff;stroke:#f05a26;stroke-miterlimit:10" /><g
         id="g35"><path
           inkscape:connector-curvature="0"
           class="st3"
           d="m 652.1,560.5 c -11.8,0 -21.7,-9.9 -21.7,-21.7 0,-12.2 9.9,-22.1 21.7,-22.1 12.2,0 22.1,9.9 22.1,22.1 0,11.9 -9.8,21.7 -22.1,21.7 z m 17,-283.5 -5.1,202.7 -23.7,0 -4.7,-202.7 33.5,0 z"
           id="path37"
           style="fill:#333333" /></g></g></g></svg>